<svg xmlns="http://www.w3.org/2000/svg" xmlns:xlink="http://www.w3.org/1999/xlink" version="1.1" width="1000" height="1000" viewBox="0 0 1000 1000" xml:space="preserve">
<desc>Created with Fabric.js 3.5.0</desc>
<defs>
</defs>
<rect x="0" y="0" width="100%" height="100%" fill="rgba(255,255,255,0)"/>
<g transform="matrix(32.4675 0 0 32.4675 499.9995 499.9997)" id="538635">
<path style="stroke: none; stroke-width: 1; stroke-dasharray: none; stroke-linecap: butt; stroke-dashoffset: 0; stroke-linejoin: miter; stroke-miterlimit: 4; is-custom-font: none; font-file-url: none; fill: rgb(209,240,177); fill-rule: nonzero; opacity: 1;" vector-effect="non-scaling-stroke" transform=" translate(-16, -16)" d="M 4 10 h 24 c 1.104 0 2 -0.896 2 -2 s -0.896 -2 -2 -2 H 4 C 2.896 6 2 6.896 2 8 S 2.896 10 4 10 z M 28 14 H 4 c -1.104 0 -2 0.896 -2 2 s 0.896 2 2 2 h 24 c 1.104 0 2 -0.896 2 -2 S 29.104 14 28 14 z M 28 22 H 4 c -1.104 0 -2 0.896 -2 2 s 0.896 2 2 2 h 24 c 1.104 0 2 -0.896 2 -2 S 29.104 22 28 22 z" stroke-linecap="round"/>
</g>
</svg>